<?xml version="1.0" encoding="UTF-8"?>
<!-- Generator: Adobe Illustrator 28.3.0, SVG Export Plug-In . SVG Version: 6.00 Build 0)  -->
<svg xmlns="http://www.w3.org/2000/svg" xmlns:xlink="http://www.w3.org/1999/xlink" version="1.1" id="Layer_1" x="0px" y="0px" viewBox="0 0 300 300" style="enable-background:new 0 0 300 300;" xml:space="preserve">
<style type="text/css">
	.st0{fill-rule:evenodd;clip-rule:evenodd;}
	.st1{stroke:#000000;stroke-width:1.04;stroke-miterlimit:10;}
</style>
<path d="M209.14,137.52c0-4.06-3.31-7.37-7.37-7.37h-5.44c-4.06,0-7.37,3.31-7.37,7.37v9.08l0,16.21c0,0.21-0.17,0.38-0.38,0.38  h-2.16c-1.01-1.97-3.06-3.31-5.42-3.31h-25.52v-5.85h11.6c4.09,0,8.01-1.75,10.74-4.8s4.04-7.13,3.58-11.2l-4.42-39.7  c-0.81-7.31-6.97-12.82-14.32-12.82h-25.31c-7.35,0-13.51,5.51-14.32,12.82l-0.67,6.05c-0.12,1.04,0.63,1.97,1.67,2.09  c1.04,0.12,1.97-0.63,2.09-1.67l0.67-6.05c0.6-5.39,5.14-9.46,10.57-9.46h25.31c5.42,0,9.97,4.07,10.57,9.46l4.42,39.7  c0.33,3-0.63,6.01-2.64,8.27c-2.01,2.25-4.9,3.54-7.92,3.54h-34.15c-3.02,0-5.91-1.29-7.92-3.54c-2.01-2.25-2.98-5.26-2.64-8.27  l2.91-26.14c0.12-1.04-0.63-1.97-1.67-2.09c-1.04-0.12-1.97,0.63-2.09,1.67l-2.91,26.14c-0.45,4.07,0.85,8.15,3.58,11.2  c2.73,3.05,6.64,4.8,10.74,4.8h11.6v5.85h-25.52c-2.36,0-4.41,1.35-5.42,3.31h-2.16c-0.21,0-0.38-0.17-0.38-0.38l0-16.21v-9.08  c0-4.06-3.31-7.37-7.37-7.37h-5.43c-4.06,0-7.37,3.31-7.37,7.37c0,5.46,4.01,10.01,9.25,10.84v14.45c0,6.24,5.08,11.31,11.31,11.31  h5.24c1.88,1.62,4.33,2.6,7.01,2.6h20.86v16.58h-17.7c-8.67,0-15.72,7.05-15.72,15.72c0,3.02,2.46,5.48,5.48,5.48  c3.02,0,5.48-2.46,5.48-5.48c0-2.63,2.14-4.76,4.76-4.76h17.7v4.76c0,3.02,2.46,5.48,5.48,5.48c3.02,0,5.48-2.46,5.48-5.48v-4.76  h17.7c2.63,0,4.76,2.14,4.76,4.76c0,3.02,2.46,5.48,5.48,5.48c3.02,0,5.48-2.46,5.48-5.48c0-8.67-7.05-15.72-15.72-15.72h-17.7  v-16.58h3.69c1.04,0,1.89-0.85,1.89-1.89c0-1.04-0.85-1.89-1.89-1.89h-35.5c-3.85,0-6.97-3.13-6.97-6.97c0-1.28,1.04-2.32,2.32-2.32  h61.99c1.28,0,2.32,1.04,2.32,2.32c0,3.85-3.13,6.97-6.97,6.97h-9.61c-1.04,0-1.89,0.85-1.89,1.89c0,1.04,0.85,1.89,1.89,1.89h9.61  c2.67,0,5.12-0.98,7.01-2.6h5.24c6.24,0,11.31-5.08,11.31-11.31v-14.46C205.13,147.52,209.14,142.98,209.14,137.52z M153.59,197.09  h19.59c6.58,0,11.94,5.35,11.94,11.94c0,0.94-0.76,1.7-1.7,1.7c-0.94,0-1.7-0.76-1.7-1.7c0-4.71-3.83-8.54-8.54-8.54h-19.59  c-1.04,0-1.89,0.85-1.89,1.89v6.65c0,0.94-0.76,1.7-1.7,1.7s-1.7-0.76-1.7-1.7v-6.65c0-1.04-0.85-1.89-1.89-1.89h-19.59  c-4.71,0-8.54,3.83-8.54,8.54c0,0.94-0.76,1.7-1.7,1.7s-1.7-0.76-1.7-1.7c0-6.58,5.35-11.94,11.94-11.94h19.59  c1.04,0,1.89-0.85,1.89-1.89v-18.47h3.39v18.47C151.7,196.24,152.54,197.09,153.59,197.09z M94.64,137.52  c0-1.98,1.61-3.59,3.59-3.59h5.43c1.98,0,3.59,1.61,3.59,3.59v7.19h-5.43C97.87,144.71,94.64,141.48,94.64,137.52z M103.89,162.81  v-14.32h3.37v14.32c0,2.29,1.87,4.16,4.16,4.16h1.54c0.11,1.19,0.42,2.33,0.88,3.37h-2.42  C107.27,170.34,103.89,166.96,103.89,162.81z M148.3,154.03h3.39v5.85h-3.39V154.03z M188.58,170.34h-2.42  c0.47-1.05,0.77-2.18,0.88-3.37h1.53c2.29,0,4.16-1.87,4.16-4.16l0-14.32h3.37v14.32C196.11,166.96,192.73,170.34,188.58,170.34z   M198.17,144.71h-5.43v-7.19c0-1.98,1.61-3.59,3.59-3.59h5.44c1.98,0,3.59,1.61,3.59,3.59  C205.36,141.48,202.13,144.71,198.17,144.71z"></path>
</svg>
