<?xml version="1.0" encoding="UTF-8"?>
<!-- Generator: Adobe Illustrator 28.3.0, SVG Export Plug-In . SVG Version: 6.00 Build 0)  -->
<svg xmlns="http://www.w3.org/2000/svg" xmlns:xlink="http://www.w3.org/1999/xlink" version="1.1" id="Layer_1" x="0px" y="0px" viewBox="0 0 300 300" style="enable-background:new 0 0 300 300;" xml:space="preserve">
<style type="text/css">
	.st0{fill-rule:evenodd;clip-rule:evenodd;}
	.st1{stroke:#000000;stroke-width:1.04;stroke-miterlimit:10;}
</style>
<path d="M218.57,189.46h-3.86v-71.88c-0.03-7.77-6.36-14.05-14.13-14.02h-11.99v-3.02c0-0.64-0.23-1.34-0.65-1.63h0.01L174.7,85.66  l0,0.01c-0.43-0.43-1.02-0.67-1.64-0.67h-35.63c-0.6,0-1.18,0.24-1.6,0.67s-0.65,1.02-0.63,1.62v16.28h-3.89l0-2.39  c0-0.44-0.12-0.87-0.34-1.24l-7.66-12.46c-0.42-0.69-1.17-1.11-1.98-1.11c-0.81,0-1.56,0.42-1.98,1.1l-7.66,12.45  c-0.23,0.38-0.34,0.82-0.34,1.26l0,2.39H99.42c-7.77-0.03-14.1,6.24-14.13,14.02v71.88h-3.86c-1.28,0-2.23,1.13-2.23,2.42v9.05  c-0.01,3.72,1.45,7.3,4.08,9.94c2.63,2.64,6.2,4.12,9.92,4.13h113.6c3.72,0,7.3-1.49,9.92-4.13c2.63-2.64,4.1-6.22,4.08-9.94v-9.05  C220.8,190.6,219.85,189.46,218.57,189.46z M175.25,92.9l5.47,5.45h-5.47V92.9z M139.84,89.64h30.76v10.91  c0.06,1.33,1.13,2.4,2.46,2.44h10.89v45.85h-44.11V89.64z M186.33,153.48c0.61-0.01,1.2-0.26,1.62-0.69  c0.43-0.44,0.66-1.03,0.65-1.64v-30.45h9.87v58.04h-96.92v-58.04h9.84l0.03,22.91c0,5.48,4.44,9.93,9.92,9.94  c5.48,0,9.93-4.44,9.94-9.92l0.03-22.92h3.91v30.45c-0.02,0.61,0.21,1.2,0.63,1.64s1,0.69,1.61,0.7H186.33z M126.63,134.62h-10.59  L116,103.57h10.67L126.63,134.62z M126.63,139.26l-0.01,4.34c-0.05,2.88-2.4,5.19-5.28,5.19c-2.88,0-5.23-2.3-5.29-5.18l-0.01-4.35  H126.63z M135.2,108.21v7.83h-3.9l0.01-7.83H135.2z M121.33,93.23l3.51,5.7h-7.01L121.33,93.23z M89.93,117.59  c0.03-5.21,4.28-9.41,9.49-9.37h11.94l0.01,7.83H99.27c-1.28,0-2.37,0.93-2.37,2.22v62.77c0.02,1.29,1.07,2.33,2.37,2.33h101.47  c1.29,0,2.35-1.04,2.37-2.33v-62.77c0-1.28-1.08-2.22-2.37-2.22h-12.14v-7.83h11.99c5.21-0.03,9.46,4.16,9.49,9.37v71.88h-42.8  c-0.66,0.02-1.27,0.31-1.71,0.8l-2.39,2.57c-1.79,1.93-4.31,3.03-6.95,3.02h-12.45c-2.63,0.02-5.15-1.07-6.95-3l-2.39-2.62  c-0.44-0.48-1.06-0.76-1.71-0.77h-42.8V117.59z M216.16,200.93c0.02,2.49-0.96,4.89-2.72,6.66c-1.76,1.77-4.15,2.76-6.64,2.76H93.2  c-2.49,0-4.88-1-6.64-2.76c-1.76-1.77-2.74-4.17-2.72-6.66v-6.82h47.87l1.7,1.84c2.67,2.89,6.43,4.54,10.36,4.54h12.45  c3.94,0,7.69-1.65,10.36-4.54l1.7-1.84h47.87V200.93z"></path>
<path d="M143.65,152.32h12.71c1.28,0,2.32-1.04,2.32-2.32s-1.04-2.32-2.32-2.32h-12.71c-1.28,0-2.32,1.04-2.32,2.32  S142.37,152.32,143.65,152.32z"></path>
<path d="M162.61,147.68h-25.22c-1.28,0-2.32,1.04-2.32,2.32s1.04,2.32,2.32,2.32h25.22c1.28,0,2.32-1.04,2.32-2.32  S163.89,147.68,162.61,147.68z"></path>
<path d="M162.61,147.68h-25.22c-1.28,0-2.32,1.04-2.32,2.32s1.04,2.32,2.32,2.32h25.22c1.28,0,2.32-1.04,2.32-2.32  S163.89,147.68,162.61,147.68z"></path>
<path d="M162.61,147.68h-25.22c-1.28,0-2.32,1.04-2.32,2.32s1.04,2.32,2.32,2.32h25.22c1.28,0,2.32-1.04,2.32-2.32  S163.89,147.68,162.61,147.68z"></path>
</svg>
