<?xml version="1.0" encoding="UTF-8"?>
<!-- Generator: Adobe Illustrator 28.3.0, SVG Export Plug-In . SVG Version: 6.00 Build 0)  -->
<svg xmlns="http://www.w3.org/2000/svg" xmlns:xlink="http://www.w3.org/1999/xlink" version="1.1" id="Layer_1" x="0px" y="0px" viewBox="0 0 300 300" style="enable-background:new 0 0 300 300;" xml:space="preserve">
<style type="text/css">
	.st0{fill-rule:evenodd;clip-rule:evenodd;}
	.st1{stroke:#000000;stroke-width:1.04;stroke-miterlimit:10;}
</style>
<g>
	<circle class="st1" cx="196.89" cy="186.41" r="2.29"></circle>
	<circle class="st1" cx="184.04" cy="186.41" r="2.29"></circle>
	<path class="st1" d="M159.12,97.7h18.38c0.84,0,1.54-0.7,1.54-1.54s-0.7-1.54-1.54-1.54h-18.38c-0.84,0-1.54,0.7-1.54,1.54   S158.26,97.7,159.12,97.7z"></path>
	<path class="st1" d="M159.12,108.04h18.38c0.84,0,1.54-0.7,1.54-1.54c0-0.84-0.7-1.54-1.54-1.54h-18.38c-0.84,0-1.54,0.7-1.54,1.54   C157.59,107.34,158.26,108.04,159.12,108.04z"></path>
	<path class="st1" d="M159.12,118.36h18.38c0.84,0,1.54-0.68,1.54-1.54c0-0.84-0.7-1.54-1.54-1.54h-18.38   c-0.84,0-1.54,0.7-1.54,1.54C157.59,117.66,158.28,118.36,159.12,118.36z"></path>
	<path class="st1" d="M122.52,97.7h18.38c0.84,0,1.54-0.7,1.54-1.54s-0.7-1.54-1.54-1.54h-18.38c-0.84,0-1.54,0.7-1.54,1.54   S121.68,97.7,122.52,97.7z"></path>
	<path class="st1" d="M122.52,108.04h18.38c0.84,0,1.54-0.7,1.54-1.54c0-0.84-0.7-1.54-1.54-1.54h-18.38c-0.84,0-1.54,0.7-1.54,1.54   C120.98,107.34,121.68,108.04,122.52,108.04z"></path>
	<path class="st1" d="M122.52,118.36h18.38c0.84,0,1.54-0.7,1.54-1.54c0-0.84-0.7-1.54-1.54-1.54h-18.38c-0.84,0-1.54,0.7-1.54,1.54   C120.98,117.66,121.68,118.36,122.52,118.36z"></path>
	<path class="st1" d="M142.44,127.16c0-0.84-0.7-1.54-1.54-1.54h-18.38c-0.84,0-1.54,0.7-1.54,1.54c0,0.84,0.7,1.54,1.54,1.54h18.38   C141.76,128.7,142.44,128,142.44,127.16z"></path>
	<path class="st1" d="M202.99,106.23h-6.61v-3.77c0-3.54-2.87-6.41-6.41-6.41h-1.82v-9.52c0-0.84-0.7-1.54-1.54-1.54h-26.86   c-4.16,0-7.78,2.27-9.74,5.63c-1.97-3.36-5.59-5.63-9.74-5.63h-26.86c-0.84,0-1.54,0.7-1.54,1.54v9.52h-1.82   c-3.54,0-6.41,2.87-6.41,6.41v3.77h-6.61c-5.75,0-10.42,4.67-10.42,10.42v73.33c0,5.75,4.67,10.42,10.42,10.42h30.83v11.53h-5.43   c-0.84,0-1.54,0.7-1.54,1.54c0,0.84,0.7,1.54,1.54,1.54h55.13c0.84,0,1.54-0.7,1.54-1.54c0-0.84-0.7-1.54-1.54-1.54h-5.43V200.4   h30.83c5.75,0,10.42-4.67,10.42-10.42v-73.33C213.41,110.9,208.75,106.23,202.99,106.23z M151.55,96.28c0-4.52,3.69-8.21,8.21-8.21   h25.32v50.23h-25.32c-3.21,0-6.14,1.35-8.21,3.54V96.28z M114.94,88.07h25.32c4.52,0,8.21,3.69,8.21,8.21v45.54   c-2.07-2.19-5-3.54-8.21-3.54h-25.32V88.07z M106.71,102.46c0-1.84,1.49-3.34,3.34-3.34h1.82v40.71c0,0.84,0.7,1.54,1.54,1.54   h26.86c4.18,0,7.7,3.13,8.15,7.29c0.08,0.78,0.82,1.37,1.6,1.37h0.08c0.78,0,1.43-0.59,1.54-1.37c0.45-4.16,3.95-7.29,8.15-7.29   h26.86c0.84,0,1.54-0.7,1.54-1.54V99.13h1.82c1.84,0,3.34,1.49,3.34,3.34v47.58c0,1.84-1.49,3.34-3.34,3.34h-79.94   c-1.84,0-3.34-1.49-3.34-3.34V102.46z M89.68,116.65c0-4.05,3.3-7.35,7.35-7.35h6.61v40.75c0,3.54,2.87,6.41,6.41,6.41h79.9   c3.54,0,6.41-2.87,6.41-6.41V109.3h6.61c4.05,0,7.35,3.3,7.35,7.35v59.94H89.68V116.65z M169.09,211.93h-38.16V200.4h38.16V211.93z    M210.34,189.98c0,4.05-3.3,7.35-7.35,7.35H97.03c-4.05,0-7.35-3.3-7.35-7.35v-10.32h120.66V189.98z"></path>
</g>
</svg>
