<?xml version="1.0" encoding="UTF-8"?>
<!-- Generator: Adobe Illustrator 28.3.0, SVG Export Plug-In . SVG Version: 6.00 Build 0)  -->
<svg xmlns="http://www.w3.org/2000/svg" xmlns:xlink="http://www.w3.org/1999/xlink" version="1.1" id="Layer_1" x="0px" y="0px" viewBox="0 0 300 300" style="enable-background:new 0 0 300 300;" xml:space="preserve">
<style type="text/css">
	.st0{fill-rule:evenodd;clip-rule:evenodd;}
	.st1{stroke:#000000;stroke-width:1.04;stroke-miterlimit:10;}
</style>
<g>
	<g id="Page-1">
		<g id="_x30_01---Flying-Bot">
			<path id="Shape_00000160892505409098787170000000431310282364543618_" d="M180.17,126.3v-4.31c-0.01-9.52-7.72-17.23-17.24-17.24     h-25.86c-9.52,0.01-17.23,7.72-17.24,17.24v4.31c0.01,9.52,7.72,17.23,17.24,17.24h25.86     C172.45,143.53,180.16,135.81,180.17,126.3z M162.93,139.23h-25.86c-7.14-0.01-12.92-5.79-12.93-12.93v-4.31     c0.01-7.14,5.79-12.92,12.93-12.93h25.86c7.14,0.01,12.92,5.79,12.93,12.93v4.31C175.85,133.44,170.07,139.22,162.93,139.23z"></path>
			<path id="Shape_1_" d="M137.07,117.68c-4.76,0-8.62,3.86-8.62,8.62c0,1.19,0.96,2.15,2.15,2.15c1.19,0,2.15-0.96,2.15-2.15     c0-2.38,1.93-4.31,4.31-4.31s4.31,1.93,4.31,4.31c0,1.19,0.96,2.15,2.15,2.15c1.19,0,2.15-0.96,2.15-2.15     C145.69,121.54,141.83,117.68,137.07,117.68L137.07,117.68z"></path>
			<path id="Shape_2_" d="M162.93,117.68c-4.76,0-8.62,3.86-8.62,8.62c0,1.19,0.96,2.15,2.15,2.15c1.19,0,2.15-0.96,2.15-2.15     c0-2.38,1.93-4.31,4.31-4.31s4.31,1.93,4.31,4.31c0,1.19,0.96,2.15,2.15,2.15s2.15-0.96,2.15-2.15     C171.55,121.54,167.69,117.68,162.93,117.68L162.93,117.68z"></path>
			<path id="Shape_3_" d="M154.84,160.78h-9.68c-2.33,0-4.44,1.36-5.4,3.47c-0.96,2.12-0.59,4.6,0.94,6.35l4.65,5.31     c1.17,1.34,2.87,2.11,4.64,2.11s3.47-0.77,4.64-2.11l4.65-5.31c1.53-1.75,1.9-4.23,0.94-6.35     C159.28,162.13,157.16,160.77,154.84,160.78L154.84,160.78z M156.06,167.76l-4.66,5.31c-0.36,0.39-0.87,0.61-1.4,0.61     c-0.53,0-1.04-0.22-1.4-0.61l-4.66-5.31c-0.42-0.48-0.52-1.15-0.25-1.73c0.26-0.58,0.84-0.94,1.47-0.94h9.68     c0.63,0,1.21,0.37,1.47,0.94C156.57,166.61,156.48,167.28,156.06,167.76z"></path>
			<path id="Shape_4_" d="M98.28,199.57c-0.03,5.07,3.49,9.48,8.45,10.58c4.95,1.1,10-1.41,12.12-6.02     c2.12-4.61,0.73-10.07-3.33-13.12v-12.99h3.36c2.54,9.13,8.95,16.68,17.54,20.67l1.17,5.78c1.18,5.92,6.38,10.18,12.41,10.18     s11.23-4.26,12.41-10.18l1.17-5.79c8.59-3.99,15-11.54,17.54-20.66h3.36V191c-3.71,2.78-5.22,7.63-3.76,12.03     c1.47,4.4,5.58,7.37,10.22,7.37c4.64,0,8.76-2.97,10.22-7.37c1.47-4.4-0.05-9.24-3.76-12.03v-15.96     c1.38-1.56,2.15-3.56,2.15-5.64v-2.15c-0.01-5.95-4.83-10.77-10.78-10.78h-9.19c-0.67-0.95-1.45-1.83-2.32-2.6     c6.75-1.65,11.49-7.69,11.51-14.64v-2.35c6.24-1.04,10.81-6.46,10.78-12.79s-4.63-11.71-10.88-12.7     c-1.04-14.65-13.22-26.02-27.92-26.04h-21.55c-14.69,0.02-26.87,11.39-27.92,26.04c-6.25,1-10.86,6.37-10.88,12.7     c-0.02,6.33,4.54,11.74,10.78,12.79v2.35c0.01,6.94,4.76,12.99,11.51,14.64c-0.87,0.78-1.65,1.65-2.32,2.6h-9.19     c-5.95,0.01-10.77,4.83-10.78,10.78v2.15c0.01,2.08,0.77,4.09,2.15,5.64V191C99.89,193.02,98.29,196.19,98.28,199.57     L98.28,199.57z M109.05,206.03c-3.57,0-6.47-2.89-6.47-6.47s2.89-6.47,6.47-6.47s6.47,2.89,6.47,6.47     S112.62,206.03,109.05,206.03z M178.02,165.09v4.31c0,6.68-2.4,13.14-6.76,18.2c-6.87-2.18-14.05-3.23-21.26-3.11     c-7.21-0.12-14.39,0.94-21.26,3.11c-4.36-5.06-6.76-11.52-6.76-18.2v-4.31c0.01-5.95,4.83-10.77,10.78-10.78h34.48     C173.19,154.32,178.01,159.14,178.02,165.09L178.02,165.09z M150,197.41c-6.49,0.01-12.78-2.25-17.78-6.38     c5.8-1.56,11.78-2.31,17.78-2.24c6-0.07,11.98,0.68,17.78,2.24C162.78,195.16,156.49,197.42,150,197.41L150,197.41z      M158.19,203.63c-0.78,3.9-4.21,6.71-8.19,6.71c-3.98,0-7.41-2.82-8.18-6.72l-0.65-3.16c5.77,1.68,11.89,1.68,17.65,0     L158.19,203.63z M190.95,206.03c-3.57,0-6.47-2.89-6.47-6.47s2.89-6.47,6.47-6.47s6.47,2.89,6.47,6.47     S194.52,206.03,190.95,206.03z M190.95,188.79c-0.72,0-1.45,0.07-2.15,0.22v-10.99h2.15c0.73-0.01,1.45-0.11,2.15-0.31v11.3     C192.39,188.86,191.67,188.79,190.95,188.79z M188.79,160.78c3.57,0,6.47,2.89,6.47,6.47v2.15c0,2.38-1.93,4.31-4.31,4.31H182     c0.2-1.43,0.31-2.87,0.32-4.31v-4.31c0-1.46-0.22-2.91-0.65-4.31L188.79,160.78L188.79,160.78z M195.26,124.14     c-0.01,3.93-2.66,7.36-6.47,8.35v-16.7C192.59,116.78,195.25,120.21,195.26,124.14z M104.74,124.14     c0.01-3.93,2.66-7.36,6.47-8.35v16.7C107.41,131.5,104.75,128.07,104.74,124.14z M126.29,150c-5.95-0.01-10.77-4.83-10.78-10.78     v-25.86c0.02-13.09,10.62-23.69,23.71-23.71h21.55c13.09,0.02,23.69,10.62,23.71,23.71v25.86c-0.01,5.95-4.83,10.77-10.78,10.78     H126.29z M104.74,167.24c0-3.57,2.89-6.47,6.47-6.47h7.11c-0.42,1.4-0.64,2.85-0.65,4.31v4.31c0.01,1.44,0.12,2.88,0.32,4.31     h-8.94c-2.38,0-4.31-1.93-4.31-4.31L104.74,167.24L104.74,167.24z M106.9,177.71c0.7,0.19,1.43,0.3,2.15,0.31h2.15v10.99     c-1.42-0.29-2.89-0.29-4.31,0L106.9,177.71L106.9,177.71z"></path>
		</g>
	</g>
</g>
</svg>
