<?xml version="1.0" encoding="UTF-8"?>
<!-- Generator: Adobe Illustrator 28.3.0, SVG Export Plug-In . SVG Version: 6.00 Build 0)  -->
<svg xmlns="http://www.w3.org/2000/svg" xmlns:xlink="http://www.w3.org/1999/xlink" version="1.1" id="Layer_1" x="0px" y="0px" viewBox="0 0 300 300" style="enable-background:new 0 0 300 300;" xml:space="preserve">
<style type="text/css">
	.st0{fill-rule:evenodd;clip-rule:evenodd;}
	.st1{stroke:#000000;stroke-width:1.04;stroke-miterlimit:10;}
</style>
<g>
	<path d="M159.62,130.47c0-5.3-4.32-9.62-9.62-9.62c-5.31,0-9.62,4.32-9.62,9.62c0,5.3,4.32,9.62,9.62,9.62   C155.31,140.09,159.62,135.77,159.62,130.47L159.62,130.47z M150,135.91c-3,0-5.44-2.44-5.44-5.44c0-3,2.44-5.44,5.44-5.44   c3,0,5.44,2.44,5.44,5.44S153,135.91,150,135.91z"></path>
	<path d="M147.91,146.29c0,1.15,0.94,2.09,2.09,2.09s2.09-0.94,2.09-2.09c0-1.15-0.94-2.09-2.09-2.09S147.91,145.13,147.91,146.29z"></path>
	<path d="M84.94,214h96.32c1.15,0,2.09-0.94,2.09-2.09c0-1.15-0.94-2.09-2.09-2.09H84.94c-1.15,0-2.09-0.94-2.09-2.09v-13.78   c0-1.15,0.94-2.09,2.09-2.09h130.13c1.15,0,2.09,0.94,2.09,2.09v13.78c0,1.15-0.94,2.09-2.09,2.09h-24.7   c-1.15,0-2.09,0.94-2.09,2.09c0,1.15,0.94,2.09,2.09,2.09h24.7c3.46,0,6.27-2.81,6.27-6.27v-13.78c0-3.46-2.81-6.27-6.27-6.27   h-4.71v-41.33c0-16.12-6.28-31.28-17.68-42.68C181.28,92.28,166.12,86,150,86s-31.28,6.28-42.68,17.68s-17.68,26.56-17.68,42.68v4   c0,1.15,0.94,2.09,2.09,2.09s2.09-0.94,2.09-2.09v-4c0-17.15,7.72-32.52,19.87-42.83v35.1c0,20.02,16.29,36.31,36.31,36.31   s36.31-16.29,36.31-36.31v-35.1c12.15,10.31,19.87,25.69,19.87,42.83v41.33H93.82v-27.79c0-1.15-0.94-2.09-2.09-2.09   s-2.09,0.94-2.09,2.09v27.79h-4.71c-3.46,0-6.27,2.81-6.27,6.27v13.78C78.67,211.19,81.48,214,84.94,214L84.94,214z M182.13,138.63   c0,17.72-14.41,32.13-32.13,32.13s-32.13-14.41-32.13-32.13V100.3c9.11-6.37,20.19-10.12,32.13-10.12   c11.94,0,23.02,3.75,32.13,10.12L182.13,138.63z"></path>
	<path d="M130.2,122.13v16.68c0,10.92,8.88,19.8,19.8,19.8s19.8-8.88,19.8-19.8v-3.86c0-1.15-0.94-2.09-2.09-2.09   c-1.15,0-2.09,0.94-2.09,2.09v3.86c0,8.61-7.01,15.62-15.62,15.62c-8.61,0-15.62-7.01-15.62-15.62v-16.68   c0-8.61,7.01-15.62,15.62-15.62s15.62,7.01,15.62,15.62v3.71c0,1.15,0.94,2.09,2.09,2.09c1.15,0,2.09-0.94,2.09-2.09v-3.71   c0-10.92-8.88-19.8-19.8-19.8S130.2,111.21,130.2,122.13z"></path>
</g>
</svg>
