<?xml version="1.0" encoding="UTF-8"?>
<!-- Generator: Adobe Illustrator 28.3.0, SVG Export Plug-In . SVG Version: 6.00 Build 0)  -->
<svg xmlns="http://www.w3.org/2000/svg" xmlns:xlink="http://www.w3.org/1999/xlink" version="1.1" id="Layer_1" x="0px" y="0px" viewBox="0 0 300 300" style="enable-background:new 0 0 300 300;" xml:space="preserve">
<style type="text/css">
	.st0{fill-rule:evenodd;clip-rule:evenodd;}
	.st1{stroke:#000000;stroke-width:1.04;stroke-miterlimit:10;}
</style>
<g>
	<path d="M226.92,85.75H73.08c-4.13,0-7.49,3.36-7.49,7.49v113.52c0,4.13,3.36,7.49,7.49,7.49h153.83c4.13,0,7.49-3.36,7.49-7.49   V93.24C234.41,89.11,231.05,85.75,226.92,85.75z M228.78,206.76c0,1.03-0.84,1.86-1.86,1.86H73.08c-1.03,0-1.86-0.84-1.86-1.86   V93.24c0-1.03,0.84-1.86,1.86-1.86h153.83c1.03,0,1.86,0.84,1.86,1.86V206.76z"></path>
	<path d="M210.35,112.52H89.65c-1.56,0-2.81,1.26-2.81,2.81v69.34c0,1.55,1.26,2.81,2.81,2.81h120.71c1.56,0,2.81-1.26,2.81-2.81   v-69.34C213.17,113.78,211.91,112.52,210.35,112.52z M133.03,181.86v-7.89c0-9.36,7.61-16.97,16.97-16.97s16.97,7.61,16.97,16.97   v7.89H133.03z M142.74,144.1c0-4,3.26-7.26,7.26-7.26c4,0,7.26,3.26,7.26,7.26c0,4-3.26,7.26-7.26,7.26   C146,151.36,142.74,148.11,142.74,144.1z M207.54,181.86H172.6v-7.89c0-9.25-5.58-17.2-13.56-20.7c2.37-2.34,3.84-5.58,3.84-9.16   c0-7.11-5.78-12.89-12.89-12.89c-7.11,0-12.89,5.78-12.89,12.89c0,3.58,1.47,6.83,3.84,9.16c-7.97,3.5-13.56,11.45-13.56,20.7v7.89   H92.46v-63.71h115.08L207.54,181.86z"></path>
	<path d="M150,110.34c4.2,0,7.62-3.42,7.62-7.62s-3.42-7.62-7.62-7.62s-7.62,3.42-7.62,7.62C142.38,106.92,145.8,110.34,150,110.34z    M150,100.72c1.1,0,2,0.89,2,1.99c0,1.1-0.89,2-2,2s-2-0.89-2-2C148,101.61,148.9,100.72,150,100.72z"></path>
	<path d="M184.9,126.99h14.2v19.51c0,1.55,1.26,2.81,2.81,2.81s2.81-1.26,2.81-2.81v-22.33c0-1.55-1.26-2.81-2.81-2.81H184.9   c-1.56,0-2.81,1.26-2.81,2.81C182.08,125.73,183.34,126.99,184.9,126.99z"></path>
</g>
</svg>
