<?xml version="1.0" encoding="UTF-8"?>
<!-- Generator: Adobe Illustrator 28.3.0, SVG Export Plug-In . SVG Version: 6.00 Build 0)  -->
<svg xmlns="http://www.w3.org/2000/svg" xmlns:xlink="http://www.w3.org/1999/xlink" version="1.1" id="Layer_1" x="0px" y="0px" viewBox="0 0 300 300" style="enable-background:new 0 0 300 300;" xml:space="preserve">
<style type="text/css">
	.st0{fill-rule:evenodd;clip-rule:evenodd;}
	.st1{stroke:#000000;stroke-width:1.04;stroke-miterlimit:10;}
</style>
<g>
	<g>
		<g>
			<path d="M173.48,140.43c-1.28,0.03-2.46,0.43-3.45,1.08c-0.92-2.62-3.45-4.47-6.38-4.4c-1.14,0.03-2.19,0.36-3.11,0.89     c-0.39-3.35-3.27-5.9-6.7-5.82c-1.12,0.03-2.16,0.33-3.07,0.85v-10.48c0-0.11,0-0.21,0-0.32c-0.09-3.64-3.11-6.51-6.74-6.43     c-3.64,0.09-6.51,3.11-6.43,6.74v40.21c-2.23-3.97-6.22-9.67-11.06-10.55c-2.55-0.46-4.44-0.01-5.62,1.33     c-1.85,2.1-0.92,5.32-0.8,5.68c0.01,0.02,0.02,0.05,0.03,0.07l9.42,25.78c0.07,0.2,0.18,0.38,0.32,0.54l7.34,8.22v4.23     c0,0.92,0.75,1.67,1.67,1.67c0.92,0,1.67-0.75,1.67-1.67v-4.87c0-0.41-0.15-0.81-0.43-1.11l-7.55-8.45l-9.29-25.44     c-0.21-0.71-0.31-1.95,0.13-2.44c0.34-0.39,1.26-0.48,2.51-0.25c4.53,0.82,9.09,9.19,10.47,12.35c0.12,0.28,0.32,0.53,0.57,0.7     c0.76,0.53,1.8,0.35,2.33-0.41l1.32-1.88c0.2-0.28,0.3-0.62,0.3-0.96v-42.75c-0.01-0.11-0.01-0.21,0-0.32     c0.09-1.79,1.61-3.16,3.4-3.07c1.79,0.09,3.16,1.61,3.07,3.4v35.82c0,0.92,0.75,1.67,1.67,1.67c0.92,0,1.67-0.75,1.67-1.67     v-19.43c-0.01-0.11-0.01-0.22,0-0.33c0.09-1.79,1.61-3.16,3.4-3.07s3.16,1.61,3.07,3.4v20.02c0,0.92,0.75,1.67,1.67,1.67     c0.92,0,1.67-0.75,1.67-1.67v-15.1v-0.33c0.09-1.79,1.61-3.16,3.4-3.07c1.79,0.09,3.16,1.61,3.07,3.4v15.1     c0,0.92,0.75,1.67,1.67,1.67c0.92,0,1.67-0.75,1.67-1.67v-11.79v-0.32c0.09-1.79,1.61-3.16,3.4-3.07s3.16,1.61,3.07,3.4v38.74     l-3.9,7.54c-0.12,0.24-0.19,0.5-0.19,0.77v3.86c0,0.92,0.75,1.67,1.67,1.67c0.92,0,1.67-0.75,1.67-1.67v-3.45l3.9-7.54     c0.12-0.24,0.19-0.5,0.19-0.77v-39.14c0-0.1,0-0.21,0-0.31C180.13,143.22,177.12,140.35,173.48,140.43z"></path>
			<path d="M152.69,124.41c-0.92,0-1.67-0.75-1.67-1.68c0-0.3,0.08-0.6,0.24-0.86c2.33-3.92,1.04-8.98-2.88-11.3     c-3.92-2.33-8.98-1.04-11.3,2.88c-1.43,2.4-1.54,5.37-0.3,7.88c0.41,0.83,0.06,1.83-0.77,2.24c-0.82,0.4-1.81,0.07-2.23-0.75     c-0.8-1.6-1.21-3.37-1.21-5.16c0-6.4,5.2-11.59,11.61-11.59c6.4,0,11.59,5.2,11.59,11.61c0,2.08-0.56,4.13-1.63,5.92     C153.83,124.1,153.28,124.41,152.69,124.41z"></path>
			<path d="M134.24,131.13c-0.39,0-0.77-0.14-1.07-0.39c-7.33-6.07-8.34-16.93-2.27-24.26c6.07-7.33,16.93-8.34,24.26-2.27     c7.33,6.07,8.34,16.93,2.27,24.26c-0.69,0.83-1.45,1.59-2.27,2.27c-0.7,0.6-1.76,0.51-2.36-0.19c-0.6-0.7-0.51-1.76,0.19-2.36     c0.01-0.01,0.02-0.02,0.03-0.03c5.9-4.89,6.72-13.64,1.83-19.54c-4.89-5.9-13.64-6.72-19.54-1.83     c-5.9,4.89-6.72,13.64-1.83,19.54c0.55,0.67,1.17,1.28,1.83,1.83c0.71,0.59,0.81,1.65,0.22,2.36     C135.21,130.91,134.74,131.13,134.24,131.13L134.24,131.13z"></path>
		</g>
	</g>
	<g>
		<path d="M226.92,85.75H73.08c-4.13,0-7.49,3.36-7.49,7.49v113.52c0,4.13,3.36,7.49,7.49,7.49h153.83c4.13,0,7.49-3.36,7.49-7.49    V93.24C234.41,89.11,231.05,85.75,226.92,85.75z M228.78,206.76c0,1.03-0.84,1.86-1.86,1.86H73.08c-1.03,0-1.86-0.84-1.86-1.86    V93.24c0-1.03,0.84-1.86,1.86-1.86h153.83c1.03,0,1.86,0.84,1.86,1.86V206.76z"></path>
	</g>
</g>
</svg>
