<?xml version="1.0" encoding="UTF-8"?>
<!-- Generator: Adobe Illustrator 28.3.0, SVG Export Plug-In . SVG Version: 6.00 Build 0)  -->
<svg xmlns="http://www.w3.org/2000/svg" xmlns:xlink="http://www.w3.org/1999/xlink" version="1.1" id="Layer_1" x="0px" y="0px" viewBox="0 0 300 300" style="enable-background:new 0 0 300 300;" xml:space="preserve">
<style type="text/css">
	.st0{fill-rule:evenodd;clip-rule:evenodd;}
	.st1{stroke:#000000;stroke-width:1.04;stroke-miterlimit:10;}
</style>
<path d="M197.41,210.58c0,2.18-1.77,3.95-3.95,3.95h-7.9c-2.18,0-3.95-1.77-3.95-3.95c0-2.18,1.77-3.95,3.95-3.95h7.9  C195.64,206.63,197.41,208.4,197.41,210.58z M114.44,206.63h-7.9c-2.18,0-3.95,1.77-3.95,3.95c0,2.18,1.77,3.95,3.95,3.95h7.9  c2.18,0,3.95-1.77,3.95-3.95C118.39,208.4,116.62,206.63,114.44,206.63z M214.53,89.42v110.63c0,2.18-1.77,3.95-3.95,3.95H89.42  c-2.18,0-3.95-1.77-3.95-3.95V89.42c0-2.18,1.77-3.95,3.95-3.95h121.16C212.76,85.47,214.53,87.24,214.53,89.42z M146.05,148.68  H93.37v47.41h52.68V148.68z M146.05,93.37H93.37v47.41h52.68V93.37z M206.63,148.68h-52.68v47.41h52.68V148.68z M190.87,140.78  l-11.88-11.88c-0.01-0.01-0.01-0.01-0.02-0.02v11.9L190.87,140.78L190.87,140.78z M206.63,93.37h-52.68v47.41h5.27v-22.39  c0-2.18,1.77-3.95,3.95-3.95s3.95,1.77,3.95,3.95v22.39h3.95v-22.39c0-2.18,1.77-3.95,3.95-3.95c2.18,0,3.95,1.77,3.95,3.95v4.94  c0.01-0.01,0.01-0.01,0.02-0.02c1.54-1.54,4.04-1.54,5.59,0l17.47,17.47h4.58V93.37z"></path>
</svg>
